<mxfile host="app.diagrams.net" agent="Mozilla/5.0 (Windows NT 10.0; Win64; x64; rv:138.0) Gecko/20100101 Firefox/138.0" version="27.1.1">
  <diagram name="Page-1" id="4Bkk2IevNBSYOdClPp3w">
    <mxGraphModel dx="1464" dy="-1129" grid="1" gridSize="10" guides="1" tooltips="1" connect="1" arrows="1" fold="1" page="1" pageScale="1" pageWidth="850" pageHeight="1100" math="0" shadow="0">
      <root>
        <mxCell id="0" />
        <mxCell id="1" parent="0" />
        <mxCell id="mIEoRNTDmVfZuIxBWY_F-1" value="" style="shape=umlLifeline;perimeter=lifelinePerimeter;whiteSpace=wrap;html=1;container=1;dropTarget=0;collapsible=0;recursiveResize=0;outlineConnect=0;portConstraint=eastwest;newEdgeStyle={&quot;curved&quot;:0,&quot;rounded&quot;:0};participant=umlActor;" vertex="1" parent="1">
          <mxGeometry x="1860" y="2582" width="30" height="988" as="geometry" />
        </mxCell>
        <mxCell id="mIEoRNTDmVfZuIxBWY_F-2" value="" style="html=1;points=[[0,0,0,0,5],[0,1,0,0,-5],[1,0,0,0,5],[1,1,0,0,-5]];perimeter=orthogonalPerimeter;outlineConnect=0;targetShapes=umlLifeline;portConstraint=eastwest;newEdgeStyle={&quot;curved&quot;:0,&quot;rounded&quot;:0};" vertex="1" parent="mIEoRNTDmVfZuIxBWY_F-1">
          <mxGeometry x="10" y="80" width="10" height="840" as="geometry" />
        </mxCell>
        <mxCell id="mIEoRNTDmVfZuIxBWY_F-3" value="Fisherman" style="text;html=1;align=center;verticalAlign=middle;whiteSpace=wrap;rounded=0;" vertex="1" parent="1">
          <mxGeometry x="1850" y="2552" width="60" height="30" as="geometry" />
        </mxCell>
        <mxCell id="mIEoRNTDmVfZuIxBWY_F-4" value="" style="html=1;verticalAlign=bottom;endArrow=open;dashed=1;endSize=8;curved=0;rounded=0;" edge="1" parent="1" target="mIEoRNTDmVfZuIxBWY_F-27">
          <mxGeometry x="0.4949" relative="1" as="geometry">
            <mxPoint x="2597.5" y="2808.0000000000005" as="sourcePoint" />
            <mxPoint x="2067.5" y="2808.0000000000005" as="targetPoint" />
            <mxPoint as="offset" />
          </mxGeometry>
        </mxCell>
        <mxCell id="mIEoRNTDmVfZuIxBWY_F-5" value="" style="html=1;verticalAlign=bottom;endArrow=open;dashed=1;endSize=8;curved=0;rounded=0;" edge="1" parent="1">
          <mxGeometry x="0.4949" relative="1" as="geometry">
            <mxPoint x="2427.5" y="2878" as="sourcePoint" />
            <mxPoint x="2072.5" y="2878" as="targetPoint" />
            <mxPoint as="offset" />
          </mxGeometry>
        </mxCell>
        <mxCell id="mIEoRNTDmVfZuIxBWY_F-6" value="" style="html=1;verticalAlign=bottom;endArrow=open;dashed=1;endSize=8;curved=0;rounded=0;" edge="1" parent="1">
          <mxGeometry x="0.4949" relative="1" as="geometry">
            <mxPoint x="2767.5" y="2919" as="sourcePoint" />
            <mxPoint x="2072.5" y="2919" as="targetPoint" />
            <mxPoint as="offset" />
          </mxGeometry>
        </mxCell>
        <mxCell id="mIEoRNTDmVfZuIxBWY_F-7" value="Current Date" style="text;whiteSpace=wrap;html=1;" vertex="1" parent="1">
          <mxGeometry x="2275" y="2782" width="80" height="20" as="geometry" />
        </mxCell>
        <mxCell id="mIEoRNTDmVfZuIxBWY_F-8" value="AvailbleNames" style="text;whiteSpace=wrap;html=1;" vertex="1" parent="1">
          <mxGeometry x="2170" y="2851" width="80" height="30" as="geometry" />
        </mxCell>
        <mxCell id="mIEoRNTDmVfZuIxBWY_F-9" value="Quantity" style="text;whiteSpace=wrap;html=1;" vertex="1" parent="1">
          <mxGeometry x="2210" y="2896" width="85" height="25" as="geometry" />
        </mxCell>
        <mxCell id="mIEoRNTDmVfZuIxBWY_F-10" value="Chooses Name" style="html=1;verticalAlign=bottom;startArrow=oval;startFill=1;endArrow=block;startSize=8;curved=0;rounded=0;" edge="1" parent="1">
          <mxGeometry width="60" relative="1" as="geometry">
            <mxPoint x="1880" y="3185" as="sourcePoint" />
            <mxPoint x="2052.5" y="3185" as="targetPoint" />
          </mxGeometry>
        </mxCell>
        <mxCell id="mIEoRNTDmVfZuIxBWY_F-11" value="Enters Quantity" style="html=1;verticalAlign=bottom;startArrow=oval;startFill=1;endArrow=block;startSize=8;curved=0;rounded=0;" edge="1" parent="1">
          <mxGeometry width="60" relative="1" as="geometry">
            <mxPoint x="1880" y="3250" as="sourcePoint" />
            <mxPoint x="2052.5" y="3250" as="targetPoint" />
          </mxGeometry>
        </mxCell>
        <mxCell id="mIEoRNTDmVfZuIxBWY_F-12" value="Enter Weight" style="html=1;verticalAlign=bottom;startArrow=oval;startFill=1;endArrow=block;startSize=8;curved=0;rounded=0;" edge="1" parent="1">
          <mxGeometry x="-0.0448" y="2" width="60" relative="1" as="geometry">
            <mxPoint x="1880" y="3385" as="sourcePoint" />
            <mxPoint x="2052.5" y="3385" as="targetPoint" />
            <mxPoint as="offset" />
          </mxGeometry>
        </mxCell>
        <mxCell id="mIEoRNTDmVfZuIxBWY_F-13" value="Alternative" style="shape=umlFrame;whiteSpace=wrap;html=1;pointerEvents=0;recursiveResize=0;container=1;collapsible=0;width=170;" vertex="1" parent="1">
          <mxGeometry x="1670" y="2983" width="1740" height="717" as="geometry" />
        </mxCell>
        <mxCell id="mIEoRNTDmVfZuIxBWY_F-14" value="Cancel Log" style="text;html=1;" vertex="1" parent="mIEoRNTDmVfZuIxBWY_F-13">
          <mxGeometry width="100" height="20" relative="1" as="geometry">
            <mxPoint x="15" y="75" as="offset" />
          </mxGeometry>
        </mxCell>
        <mxCell id="mIEoRNTDmVfZuIxBWY_F-15" value="CancelOrderMes()" style="text;whiteSpace=wrap;html=1;" vertex="1" parent="mIEoRNTDmVfZuIxBWY_F-13">
          <mxGeometry x="405" y="70" width="90" height="20" as="geometry" />
        </mxCell>
        <mxCell id="mIEoRNTDmVfZuIxBWY_F-16" value="Alternative" style="shape=umlFrame;whiteSpace=wrap;html=1;pointerEvents=0;recursiveResize=0;container=1;collapsible=0;width=170;" vertex="1" parent="mIEoRNTDmVfZuIxBWY_F-13">
          <mxGeometry x="30" y="369" width="1680" height="321" as="geometry" />
        </mxCell>
        <mxCell id="mIEoRNTDmVfZuIxBWY_F-17" value="Weight IS illegal" style="text;html=1;" vertex="1" parent="mIEoRNTDmVfZuIxBWY_F-16">
          <mxGeometry width="100" height="20" relative="1" as="geometry">
            <mxPoint x="25" y="72" as="offset" />
          </mxGeometry>
        </mxCell>
        <mxCell id="mIEoRNTDmVfZuIxBWY_F-18" value="Weight NOT&lt;br&gt;illegal" style="line;strokeWidth=1;dashed=1;labelPosition=center;verticalLabelPosition=bottom;align=left;verticalAlign=top;spacingLeft=20;spacingTop=15;html=1;whiteSpace=wrap;" vertex="1" parent="mIEoRNTDmVfZuIxBWY_F-16">
          <mxGeometry x="10" y="160" width="1660" height="10" as="geometry" />
        </mxCell>
        <mxCell id="mIEoRNTDmVfZuIxBWY_F-19" value="&lt;br&gt;//Finish log" style="text;html=1;align=center;verticalAlign=middle;whiteSpace=wrap;rounded=0;" vertex="1" parent="mIEoRNTDmVfZuIxBWY_F-16">
          <mxGeometry x="25" y="218" width="70" height="30" as="geometry" />
        </mxCell>
        <mxCell id="mIEoRNTDmVfZuIxBWY_F-20" value="LogError()" style="text;html=1;align=center;verticalAlign=middle;resizable=0;points=[];autosize=1;strokeColor=none;fillColor=none;" vertex="1" parent="mIEoRNTDmVfZuIxBWY_F-16">
          <mxGeometry x="395" y="28" width="80" height="30" as="geometry" />
        </mxCell>
        <mxCell id="mIEoRNTDmVfZuIxBWY_F-21" style="edgeStyle=orthogonalEdgeStyle;rounded=0;orthogonalLoop=1;jettySize=auto;html=1;curved=0;" edge="1" parent="mIEoRNTDmVfZuIxBWY_F-13">
          <mxGeometry relative="1" as="geometry">
            <mxPoint x="402" y="95" as="sourcePoint" />
            <mxPoint x="402" y="110" as="targetPoint" />
            <Array as="points">
              <mxPoint x="432" y="95" />
              <mxPoint x="432" y="110" />
            </Array>
          </mxGeometry>
        </mxCell>
        <mxCell id="mIEoRNTDmVfZuIxBWY_F-22" value="" style="line;strokeWidth=1;dashed=1;labelPosition=center;verticalLabelPosition=bottom;align=left;verticalAlign=top;spacingLeft=20;spacingTop=15;html=1;whiteSpace=wrap;" vertex="1" parent="mIEoRNTDmVfZuIxBWY_F-13">
          <mxGeometry x="10" y="150" width="1730" height="10" as="geometry" />
        </mxCell>
        <mxCell id="mIEoRNTDmVfZuIxBWY_F-23" style="edgeStyle=orthogonalEdgeStyle;rounded=0;orthogonalLoop=1;jettySize=auto;html=1;curved=0;" edge="1" parent="mIEoRNTDmVfZuIxBWY_F-13">
          <mxGeometry relative="1" as="geometry">
            <mxPoint x="405" y="427" as="sourcePoint" />
            <mxPoint x="405" y="442" as="targetPoint" />
            <Array as="points">
              <mxPoint x="435" y="427" />
              <mxPoint x="435" y="442" />
            </Array>
          </mxGeometry>
        </mxCell>
        <mxCell id="mIEoRNTDmVfZuIxBWY_F-24" value="&lt;b&gt;&lt;i&gt;:FIshLog&lt;/i&gt;&lt;/b&gt;" style="shape=umlLifeline;perimeter=lifelinePerimeter;whiteSpace=wrap;html=1;container=1;dropTarget=0;collapsible=0;recursiveResize=0;outlineConnect=0;portConstraint=eastwest;newEdgeStyle={&quot;curved&quot;:0,&quot;rounded&quot;:0};" vertex="1" parent="1">
          <mxGeometry x="3171" y="2582" width="100" height="1078" as="geometry" />
        </mxCell>
        <mxCell id="mIEoRNTDmVfZuIxBWY_F-25" value="" style="html=1;points=[[0,0,0,0,5],[0,1,0,0,-5],[1,0,0,0,5],[1,1,0,0,-5]];perimeter=orthogonalPerimeter;outlineConnect=0;targetShapes=umlLifeline;portConstraint=eastwest;newEdgeStyle={&quot;curved&quot;:0,&quot;rounded&quot;:0};" vertex="1" parent="mIEoRNTDmVfZuIxBWY_F-24">
          <mxGeometry x="42.5" y="860" width="15" height="160" as="geometry" />
        </mxCell>
        <mxCell id="mIEoRNTDmVfZuIxBWY_F-26" value=":LogFishScreen" style="shape=umlLifeline;perimeter=lifelinePerimeter;whiteSpace=wrap;html=1;container=1;dropTarget=0;collapsible=0;recursiveResize=0;outlineConnect=0;portConstraint=eastwest;newEdgeStyle={&quot;curved&quot;:0,&quot;rounded&quot;:0};" vertex="1" parent="1">
          <mxGeometry x="2015" y="2580" width="95" height="1060" as="geometry" />
        </mxCell>
        <mxCell id="mIEoRNTDmVfZuIxBWY_F-27" value="" style="html=1;points=[[0,0,0,0,5],[0,1,0,0,-5],[1,0,0,0,5],[1,1,0,0,-5]];perimeter=orthogonalPerimeter;outlineConnect=0;targetShapes=umlLifeline;portConstraint=eastwest;newEdgeStyle={&quot;curved&quot;:0,&quot;rounded&quot;:0};" vertex="1" parent="mIEoRNTDmVfZuIxBWY_F-26">
          <mxGeometry x="42.5" y="90" width="15" height="910" as="geometry" />
        </mxCell>
        <mxCell id="mIEoRNTDmVfZuIxBWY_F-28" value="&lt;b&gt;&lt;font style=&quot;font-size: 33px;&quot; face=&quot;Verdana&quot;&gt;NEW&lt;/font&gt;&lt;/b&gt;" style="text;html=1;align=center;verticalAlign=middle;resizable=0;points=[];autosize=1;strokeColor=none;fillColor=none;" vertex="1" parent="1">
          <mxGeometry x="2035" y="2420" width="110" height="50" as="geometry" />
        </mxCell>
        <mxCell id="mIEoRNTDmVfZuIxBWY_F-29" value="Button Cancel Log" style="html=1;verticalAlign=bottom;startArrow=oval;startFill=1;endArrow=block;startSize=8;curved=0;rounded=0;" edge="1" parent="1">
          <mxGeometry x="0.0315" y="4" width="60" relative="1" as="geometry">
            <mxPoint x="1880" y="3062" as="sourcePoint" />
            <mxPoint x="2052.5" y="3062" as="targetPoint" />
            <mxPoint as="offset" />
          </mxGeometry>
        </mxCell>
        <mxCell id="mIEoRNTDmVfZuIxBWY_F-30" value="&lt;b&gt;&lt;i&gt;:Quantity&lt;br&gt;Controller&lt;/i&gt;&lt;/b&gt;" style="shape=umlLifeline;perimeter=lifelinePerimeter;whiteSpace=wrap;html=1;container=1;dropTarget=0;collapsible=0;recursiveResize=0;outlineConnect=0;portConstraint=eastwest;newEdgeStyle={&quot;curved&quot;:0,&quot;rounded&quot;:0};" vertex="1" parent="1">
          <mxGeometry x="2725" y="2582" width="100" height="968" as="geometry" />
        </mxCell>
        <mxCell id="mIEoRNTDmVfZuIxBWY_F-31" value="" style="html=1;points=[[0,0,0,0,5],[0,1,0,0,-5],[1,0,0,0,5],[1,1,0,0,-5]];perimeter=orthogonalPerimeter;outlineConnect=0;targetShapes=umlLifeline;portConstraint=eastwest;newEdgeStyle={&quot;curved&quot;:0,&quot;rounded&quot;:0};" vertex="1" parent="mIEoRNTDmVfZuIxBWY_F-30">
          <mxGeometry x="42.5" y="94" width="15" height="656" as="geometry" />
        </mxCell>
        <mxCell id="mIEoRNTDmVfZuIxBWY_F-32" value="&lt;b&gt;&lt;i&gt;:DateController&lt;/i&gt;&lt;/b&gt;" style="shape=umlLifeline;perimeter=lifelinePerimeter;whiteSpace=wrap;html=1;container=1;dropTarget=0;collapsible=0;recursiveResize=0;outlineConnect=0;portConstraint=eastwest;newEdgeStyle={&quot;curved&quot;:0,&quot;rounded&quot;:0};" vertex="1" parent="1">
          <mxGeometry x="2555" y="2582" width="100" height="308" as="geometry" />
        </mxCell>
        <mxCell id="mIEoRNTDmVfZuIxBWY_F-33" value="" style="html=1;points=[[0,0,0,0,5],[0,1,0,0,-5],[1,0,0,0,5],[1,1,0,0,-5]];perimeter=orthogonalPerimeter;outlineConnect=0;targetShapes=umlLifeline;portConstraint=eastwest;newEdgeStyle={&quot;curved&quot;:0,&quot;rounded&quot;:0};" vertex="1" parent="mIEoRNTDmVfZuIxBWY_F-32">
          <mxGeometry x="42.5" y="95" width="15" height="195" as="geometry" />
        </mxCell>
        <mxCell id="mIEoRNTDmVfZuIxBWY_F-34" value="&lt;b&gt;&lt;i&gt;:Fish info&lt;/i&gt;&lt;/b&gt;" style="shape=umlLifeline;perimeter=lifelinePerimeter;whiteSpace=wrap;html=1;container=1;dropTarget=0;collapsible=0;recursiveResize=0;outlineConnect=0;portConstraint=eastwest;newEdgeStyle={&quot;curved&quot;:0,&quot;rounded&quot;:0};" vertex="1" parent="1">
          <mxGeometry x="2385" y="2582" width="100" height="1088" as="geometry" />
        </mxCell>
        <mxCell id="mIEoRNTDmVfZuIxBWY_F-35" value="" style="html=1;points=[[0,0,0,0,5],[0,1,0,0,-5],[1,0,0,0,5],[1,1,0,0,-5]];perimeter=orthogonalPerimeter;outlineConnect=0;targetShapes=umlLifeline;portConstraint=eastwest;newEdgeStyle={&quot;curved&quot;:0,&quot;rounded&quot;:0};" vertex="1" parent="mIEoRNTDmVfZuIxBWY_F-34">
          <mxGeometry x="42.5" y="91" width="15" height="919" as="geometry" />
        </mxCell>
        <mxCell id="mIEoRNTDmVfZuIxBWY_F-36" value="Loop" style="shape=umlFrame;whiteSpace=wrap;html=1;pointerEvents=0;" vertex="1" parent="1">
          <mxGeometry x="1675" y="3020.25" width="600" height="91.5" as="geometry" />
        </mxCell>
        <mxCell id="mIEoRNTDmVfZuIxBWY_F-37" value="GetCurrDate()" style="html=1;verticalAlign=bottom;startArrow=oval;startFill=1;endArrow=block;startSize=8;curved=0;rounded=0;" edge="1" parent="1" source="mIEoRNTDmVfZuIxBWY_F-27">
          <mxGeometry x="0.0315" y="4" width="60" relative="1" as="geometry">
            <mxPoint x="2085" y="2780" as="sourcePoint" />
            <mxPoint x="2597.5" y="2780.0000000000005" as="targetPoint" />
            <mxPoint as="offset" />
          </mxGeometry>
        </mxCell>
        <mxCell id="mIEoRNTDmVfZuIxBWY_F-38" value="fetchName()" style="html=1;verticalAlign=bottom;startArrow=oval;startFill=1;endArrow=block;startSize=8;curved=0;rounded=0;" edge="1" parent="1">
          <mxGeometry x="0.0315" y="4" width="60" relative="1" as="geometry">
            <mxPoint x="2072.5" y="2840" as="sourcePoint" />
            <mxPoint x="2427.5" y="2840" as="targetPoint" />
            <mxPoint as="offset" />
          </mxGeometry>
        </mxCell>
        <mxCell id="mIEoRNTDmVfZuIxBWY_F-39" value="Button to&lt;br&gt;Log-Fish" style="html=1;verticalAlign=bottom;startArrow=oval;startFill=1;endArrow=block;startSize=8;curved=0;rounded=0;" edge="1" parent="1">
          <mxGeometry width="60" relative="1" as="geometry">
            <mxPoint x="1880" y="2691" as="sourcePoint" />
            <mxPoint x="2057.5" y="2691" as="targetPoint" />
          </mxGeometry>
        </mxCell>
        <mxCell id="mIEoRNTDmVfZuIxBWY_F-40" value="&lt;b&gt;&lt;i&gt;:FishLogScreen&lt;/i&gt;&lt;/b&gt;" style="shape=umlLifeline;perimeter=lifelinePerimeter;whiteSpace=wrap;html=1;container=1;dropTarget=0;collapsible=0;recursiveResize=0;outlineConnect=0;portConstraint=eastwest;newEdgeStyle={&quot;curved&quot;:0,&quot;rounded&quot;:0};" vertex="1" parent="1">
          <mxGeometry x="2925" y="2582" width="100" height="1048" as="geometry" />
        </mxCell>
        <mxCell id="mIEoRNTDmVfZuIxBWY_F-41" value="" style="html=1;points=[[0,0,0,0,5],[0,1,0,0,-5],[1,0,0,0,5],[1,1,0,0,-5]];perimeter=orthogonalPerimeter;outlineConnect=0;targetShapes=umlLifeline;portConstraint=eastwest;newEdgeStyle={&quot;curved&quot;:0,&quot;rounded&quot;:0};" vertex="1" parent="mIEoRNTDmVfZuIxBWY_F-40">
          <mxGeometry x="42.5" y="590" width="15" height="450" as="geometry" />
        </mxCell>
        <mxCell id="mIEoRNTDmVfZuIxBWY_F-42" value="OnNameSelected()" style="html=1;verticalAlign=bottom;startArrow=oval;startFill=1;endArrow=block;startSize=8;curved=0;rounded=0;" edge="1" parent="1">
          <mxGeometry x="0.0315" y="4" width="60" relative="1" as="geometry">
            <mxPoint x="2072.5" y="3208.9999999999995" as="sourcePoint" />
            <mxPoint x="2967.5" y="3208.9999999999995" as="targetPoint" />
            <mxPoint as="offset" />
          </mxGeometry>
        </mxCell>
        <mxCell id="mIEoRNTDmVfZuIxBWY_F-43" value="onQuantitySelected()" style="html=1;verticalAlign=bottom;startArrow=oval;startFill=1;endArrow=block;startSize=8;curved=0;rounded=0;" edge="1" parent="1">
          <mxGeometry x="0.3597" y="5" width="60" relative="1" as="geometry">
            <mxPoint x="2072.5" y="3280.9999999999995" as="sourcePoint" />
            <mxPoint x="2767.5" y="3280.9999999999995" as="targetPoint" />
            <mxPoint as="offset" />
          </mxGeometry>
        </mxCell>
        <mxCell id="mIEoRNTDmVfZuIxBWY_F-44" value="ValidateQuantity()" style="html=1;verticalAlign=bottom;startArrow=oval;startFill=1;endArrow=block;startSize=8;curved=0;rounded=0;" edge="1" parent="1">
          <mxGeometry x="0.0315" y="4" width="60" relative="1" as="geometry">
            <mxPoint x="2782.5" y="3328" as="sourcePoint" />
            <mxPoint x="2967.5" y="3328" as="targetPoint" />
            <mxPoint as="offset" />
          </mxGeometry>
        </mxCell>
        <mxCell id="mIEoRNTDmVfZuIxBWY_F-45" value="getWeightRegulations()" style="html=1;verticalAlign=bottom;startArrow=oval;startFill=1;endArrow=block;startSize=8;curved=0;rounded=0;" edge="1" parent="1">
          <mxGeometry x="0.0315" y="4" width="60" relative="1" as="geometry">
            <mxPoint x="2442.5" y="3564.4999999999995" as="sourcePoint" />
            <mxPoint x="2967.5" y="3564.4999999999995" as="targetPoint" />
            <mxPoint as="offset" />
          </mxGeometry>
        </mxCell>
        <mxCell id="mIEoRNTDmVfZuIxBWY_F-46" value="GenareateLogSummary()" style="html=1;verticalAlign=bottom;startArrow=oval;startFill=1;endArrow=block;startSize=8;curved=0;rounded=0;" edge="1" parent="1" target="mIEoRNTDmVfZuIxBWY_F-25">
          <mxGeometry x="0.0315" y="4" width="60" relative="1" as="geometry">
            <mxPoint x="2982.5" y="3589" as="sourcePoint" />
            <mxPoint x="3225" y="3589" as="targetPoint" />
            <mxPoint as="offset" />
          </mxGeometry>
        </mxCell>
      </root>
    </mxGraphModel>
  </diagram>
</mxfile>
